#N canvas 827 239 734 565 12;
#X obj 1335 666 dac~;
#X obj 1335 618 *~ 0.1;
#X obj 1335 396 r knob1 @hv_param;
#X obj 1335 488 line~;
#X obj 1335 432 * 1000;
#X msg 1335 460 \$1 50;
#X obj 1542 460 bng 25 250 50 0 empty empty empty 17 7 0 10 #191919 #e1e1e1 #e1e1e1;
#X obj 1542 404 r button1;
#X obj 1624 472 print button1;
#X obj 1498 478 tgl 25 0 empty empty empty 17 7 0 10 #191919 #e1e1e1 #e1e1e1 0 1;
#X obj 1347 574 *~;
#X obj 1335 528 phasor~ 440;
#X connect 1 0 0 0;
#X connect 1 0 0 1;
#X connect 2 0 4 0;
#X connect 3 0 11 0;
#X connect 4 0 5 0;
#X connect 5 0 3 0;
#X connect 6 0 9 0;
#X connect 7 0 6 0;
#X connect 7 0 8 0;
#X connect 9 0 10 1;
#X connect 10 0 1 0;
#X connect 11 0 10 0;
