#N canvas 827 239 734 565 12;
#X obj 1335 666 dac~;
#X obj 1335 618 *~ 0.1;
#X obj 1335 572 osc~ 440;
#X obj 1335 396 r knob1 @hv_param;
#X obj 1335 488 line~;
#X obj 1335 432 * 1000;
#X msg 1335 460 \$1 50;
#X connect 1 0 0 0;
#X connect 1 0 0 1;
#X connect 2 0 1 0;
#X connect 3 0 5 0;
#X connect 4 0 2 0;
#X connect 5 0 6 0;
#X connect 6 0 4 0;
